<svg xmlns="http://www.w3.org/2000/svg" viewBox="0 0 100 100"><path d="M59.00 50.00 58.96 50.88 58.83 51.76 58.61 52.61 58.31 53.44 57.94 54.24 57.48 55.00 56.96 55.71 56.36 56.36 55.71 56.96 55.00 57.48 54.24 57.94 53.44 58.31 52.61 58.61 51.76 58.83 50.88 58.96 50.00 59.00 49.12 58.96 48.24 58.83 47.39 58.61 46.56 58.31 45.76 57.94 45.00 57.48 44.29 56.96 43.64 56.36 43.04 55.71 42.52 55.00 42.06 54.24 41.69 53.44 41.39 52.61 41.17 51.76 41.04 50.88 41.00 50.00 41.04 49.12 41.17 48.24 41.39 47.39 41.69 46.56 42.06 45.76 42.52 45.00 43.04 44.29 43.64 43.64 44.29 43.04 45.00 42.52 45.76 42.06 46.56 41.69 47.39 41.39 48.24 41.17 49.12 41.04 50.00 41.00 50.88 41.04 51.76 41.17 52.61 41.39 53.44 41.69 54.24 42.06 55.00 42.52 55.71 43.04 56.36 43.64 56.96 44.29 57.48 45.00 57.94 45.76 58.31 46.56 58.61 47.39 58.83 48.24 58.96 49.12Z"/><path d="M59.00 24.00 58.92 27.13 58.69 30.21 58.31 33.18 57.79 36.00 57.14 38.61 56.36 40.97 55.48 43.04 54.50 44.78 53.44 46.17 52.33 47.18 51.17 47.79 50.00 48.00 48.83 47.79 47.67 47.18 46.56 46.17 45.50 44.78 44.52 43.04 43.64 40.97 42.86 38.61 42.21 36.00 41.69 33.18 41.31 30.21 41.08 27.13 41.00 24.00 41.08 20.87 41.31 17.79 41.69 14.82 42.21 12.00 42.86 9.39 43.64 7.03 44.52 4.96 45.50 3.22 46.56 1.83 47.67 0.82 48.83 0.21 50.00 0.00 51.17 0.21 52.33 0.82 53.44 1.83 54.50 3.22 55.48 4.96 56.36 7.03 57.14 9.39 57.79 12.00 58.31 14.82 58.69 17.79 58.92 20.87Z"/><path d="M68.02 70.79 65.34 69.16 62.79 67.42 60.41 65.61 58.23 63.75 56.29 61.88 54.64 60.03 53.29 58.22 52.27 56.50 51.59 54.90 51.28 53.43 51.32 52.12 51.73 51.00 52.50 50.09 53.60 49.39 55.04 48.93 56.77 48.71 58.77 48.73 61.00 49.00 63.43 49.51 66.02 50.25 68.72 51.21 71.48 52.37 74.27 53.71 77.02 55.21 79.69 56.84 82.24 58.58 84.63 60.39 86.81 62.25 88.74 64.12 90.40 65.97 91.75 67.78 92.77 69.50 93.44 71.10 93.76 72.57 93.71 73.88 93.30 75.00 92.54 75.91 91.43 76.61 90.00 77.07 88.27 77.29 86.27 77.27 84.03 77.00 81.60 76.49 79.01 75.75 76.31 74.79 73.55 73.63 70.77 72.29Z"/><path d="M22.98 55.21 25.73 53.71 28.52 52.37 31.28 51.21 33.98 50.25 36.57 49.51 39.00 49.00 41.23 48.73 43.23 48.71 44.96 48.93 46.40 49.39 47.50 50.09 48.27 51.00 48.68 52.12 48.72 53.43 48.41 54.90 47.73 56.50 46.71 58.22 45.36 60.03 43.71 61.88 41.77 63.75 39.59 65.61 37.21 67.42 34.66 69.16 31.98 70.79 29.23 72.29 26.45 73.63 23.69 74.79 20.99 75.75 18.40 76.49 15.97 77.00 13.73 77.27 11.73 77.29 10.00 77.07 8.57 76.61 7.46 75.91 6.70 75.00 6.29 73.88 6.24 72.57 6.56 71.10 7.23 69.50 8.25 67.78 9.60 65.97 11.26 64.12 13.19 62.25 15.37 60.39 17.76 58.58 20.31 56.84Z"/></svg>
