<svg xmlns="http://www.w3.org/2000/svg" viewBox="0 0 100 52"><path d="M107.85 28.94 104.79 31.40 101.62 33.72 98.36 35.91 95.00 37.94 91.56 39.83 88.04 41.57 84.44 43.15 80.78 44.57 77.06 45.83 73.29 46.93 69.48 47.87 65.63 48.63 61.75 49.23 57.84 49.66 53.93 49.91 50.00 50.00 46.07 49.91 42.16 49.66 38.25 49.23 34.37 48.63 30.52 47.87 26.71 46.93 22.94 45.83 19.22 44.57 15.56 43.15 11.96 41.57 8.44 39.83 5.00 37.94 1.64 35.91 -1.62 33.72 -4.79 31.40 -7.85 28.94 3.72 15.16 6.17 17.12 8.70 18.98 11.31 20.72 14.00 22.35 16.75 23.86 19.57 25.25 22.45 26.52 25.37 27.66 28.35 28.67 31.37 29.55 34.42 30.29 37.50 30.91 40.60 31.38 43.72 31.73 46.86 31.93 50.00 32.00 53.14 31.93 56.28 31.73 59.40 31.38 62.50 30.91 65.58 30.29 68.63 29.55 71.65 28.67 74.63 27.66 77.55 26.52 80.43 25.25 83.25 23.86 86.00 22.35 88.69 20.72 91.30 18.98 93.83 17.12 96.28 15.16Z"/></svg>
